<?xml version="1.0" encoding="UTF-8"?>
<svg xmlns="http://www.w3.org/2000/svg" version="1.1" viewBox="0 0 228 228">
  <!-- Generator: Adobe Illustrator 29.6.1, SVG Export Plug-In . SVG Version: 2.1.1 Build 9)  -->
  <defs>
    <style>
      .st0 {
        fill: #347ab3;
      }

      .st1 {
        font-family: BadaBoomProBB-Italic, 'BadaBoom Pro BB';
        font-size: 210px;
        font-style: italic;
      }

      .st1, .st2 {
        fill: #fff;
      }

      .st3 {
        display: none;
      }
    </style>
  </defs>
  <g id="Layer_1" class="st3">
    <rect class="st0" y="0" width="228" height="228"/>
  </g>
  <g id="Layer_3">
    <g>
      <rect class="st0" x="5" y="5" width="218" height="218" rx="29.22" ry="29.22"/>
      <path class="st2" d="M193.78,10c13.35,0,24.22,10.86,24.22,24.22v159.57c0,13.35-10.86,24.22-24.22,24.22H34.22c-13.35,0-24.22-10.86-24.22-24.22V34.22c0-13.35,10.86-24.22,24.22-24.22h159.57M193.78,0H34.22C15.32,0,0,15.32,0,34.22v159.57c0,18.9,15.32,34.22,34.22,34.22h159.57c18.9,0,34.22-15.32,34.22-34.22V34.22c0-18.9-15.32-34.22-34.22-34.22h0Z"/>
    </g>
  </g>
  <g id="Layer_2">
    <text class="st1" transform="translate(14.99 188.34)"><tspan x="0" y="0">KT</tspan></text>
  </g>
</svg>